<?xml version="1.0" encoding="utf-8"?>
<!-- Generator: Adobe Illustrator 23.0.0, SVG Export Plug-In . SVG Version: 6.00 Build 0)  -->
<svg version="1.1" id="Layer_1" xmlns="http://www.w3.org/2000/svg" xmlns:xlink="http://www.w3.org/1999/xlink" x="0px" y="0px"
	 viewBox="0 0 135 87" style="enable-background:new 0 0 135 87;" xml:space="preserve">
<style type="text/css">
	.st0{clip-path:url(#SVGID_2_);}
	.st1{fill:#FAFAFA;}
	.st2{fill:#8E8E8F;}
	.st3{opacity:0.65;fill:url(#SVGID_3_);enable-background:new    ;}
	.st4{opacity:0.65;fill:url(#SVGID_4_);enable-background:new    ;}
	.st5{fill:#929497;}
	.st6{opacity:0.65;fill:url(#SVGID_5_);enable-background:new    ;}
	.st7{opacity:0.65;fill:url(#SVGID_6_);enable-background:new    ;}
</style>
<title>altmakerproArtboard 6png@1x</title>
<g>
	<defs>
		<rect id="SVGID_1_" x="-807" y="-1116" width="1920" height="855"/>
	</defs>
	<clipPath id="SVGID_2_">
		<use xlink:href="#SVGID_1_"  style="overflow:visible;"/>
	</clipPath>
	<g class="st0">
	</g>
</g>
<path class="st1" d="M102.4,55.1c-1.7-1.4-3.9-2.1-6.1-2c-2.1-0.1-4.2,0.4-6,1.5c-0.6,0.4-1.2,0.8-1.8,1.3l0.5-2.6
	c-0.4-0.1-0.7-0.1-1.1-0.1c-1.5,0-3,0.4-4.3,1.1c-1.3,0.6-2.3,1.6-3,2.9h-0.1l0.1-0.4c0.2-1.1,0.3-2.2,0.4-3.2h-5
	c-0.1,0.9-0.3,2.3-0.7,4.5L75,59.4c-0.1-1.6-0.7-3.2-1.8-4.4c-1.2-1.3-2.9-2-4.7-1.9c-2.6,0-4.5,0.9-5.7,2.6h-0.1
	c0.1-0.9,0.2-1.7,0.3-2.3h-5c-0.1,1.1-0.3,2.8-0.7,5l-3.9,22.3h5.2l1.9-10.6h0.1c0.5,0.7,1.2,1.2,2.1,1.5c1,0.4,2,0.5,3,0.5
	c1.7,0,3.4-0.5,4.8-1.5c1.3-1,2.3-2.4,3-3.9l-0.9,5h5.2l1.4-7.7c0.2-1.3,0.8-2.4,1.6-3.4c0.8-1,1.8-1.9,3-2.5c1-0.5,2.2-0.9,3.3-0.9
	c-0.3,0.4-0.6,0.9-0.9,1.4c-1,1.9-1.5,4-1.4,6.1c-0.1,2.1,0.7,4.1,2.3,5.5c1.7,1.4,3.9,2.1,6.2,2c2.1,0,4.1-0.5,5.9-1.4
	c1.7-0.9,3.1-2.4,4-4.1c1-1.9,1.5-4,1.4-6.1C104.6,58.5,103.8,56.5,102.4,55.1z M69.1,64.6c-0.3,1-0.9,2-1.7,2.7
	c-0.6,0.6-1.5,1-2.4,1c-0.9,0-1.8-0.3-2.5-0.9c-0.6-0.5-1-1.3-1-2.2c0-0.2,0-0.4,0-0.6l0.7-3.9c0.2-1.1,0.7-2,1.6-2.7
	c0.9-0.7,2-1,3.1-1c0.8-0.1,1.6,0.3,2.1,0.9c0.5,0.8,0.8,1.7,0.7,2.7C69.7,62,69.5,63.4,69.1,64.6z M98.6,64.8c-0.4,1-1.1,1.9-2,2.6
	c-0.8,0.6-1.8,0.9-2.8,0.9c-1,0.1-2-0.4-2.7-1.1c-0.7-0.8-1.1-1.9-1-3c0-1.3,0.2-2.5,0.7-3.7c0.4-1,1.1-1.9,2-2.6
	c0.8-0.6,1.8-0.9,2.8-0.9c1-0.1,2,0.4,2.7,1.1c0.7,0.9,1.1,1.9,1,3C99.4,62.4,99.1,63.6,98.6,64.8z M89.3,30.1c-1,0-1.4-0.4-1.4-1
	v-0.3L91.9,6h-5.2l-4,22.6c-0.1,0.4-0.1,0.9-0.1,1.3V30L79,9.3h-4.8L61.8,33h5.9l1.7-3.5h7.8l0.4,3.5h5.5l-0.3-1.6
	c0.2,0.5,0.5,0.9,0.8,1.2c0.9,0.7,2.1,1.1,3.2,1c1.7,0.1,3.5-0.4,4.9-1.4l-0.3-2.7C90.8,29.9,90,30,89.3,30.1z M71.4,25.1l4.1-8.6
	l1.1,8.6L71.4,25.1z M97.1,26.9c0,0.3-0.1,0.5-0.1,0.8c0,0.6,0.2,1.1,0.6,1.5c0.6,0.4,1.3,0.6,2,0.5c0.9,0,1.9-0.2,2.8-0.5l-0.4,3.5
	c-1.6,0.6-3.2,0.9-4.9,0.8c-1.4,0.1-2.8-0.3-4-1.2c-1-0.8-1.5-2.1-1.4-3.4c0-0.4,0-0.9,0.1-1.3l1.6-9H90l0.7-3.9H94l0.8-4.7l5.3-1.5
	h0.2l-1.1,6.1h5.4l-0.7,3.9h-5.3L97.1,26.9z M132.4,42.1c0.7-1.1,1-2.3,0.9-3.5c0.1-1.3-0.5-2.6-1.5-3.4c-1.3-0.9-2.8-1.3-4.3-1.2
	h-23.3l-7,7.7l1.3-7.7h-4.3l-2.7,15.4L89,34h-3.7l-8.1,15.4L79.9,34h-4.6l-7.2,14l-2.3-14h-4.2l-3.3,18.5h4.2l1.7-9.6l1.7,9.6h3
	l5.2-9.9l-1.7,9.9h7.7l1.3-2.7h6.1l0.3,2.7h7.4l0.9-5.2l2.7-2.8l3.2,8H122l1.2-6.7h1c0.6,0,1.1,0,1.6,0.2c0.3,0.2,0.5,0.6,0.6,1
	l1.1,5.5h4.5l-1.5-6.8c0-0.2-0.1-0.5-0.3-0.7c-0.2-0.2-0.4-0.5-0.6-0.7v0C130.7,43.9,131.7,43.1,132.4,42.1z M83.1,46.4l3.2-6.7
	l0.8,6.7H83.1z M106,50.8l-3.8-9.6l6.7-6.8L106,50.8z M110.6,49.2l0.8-4.6h7.5l0.6-3.4H112l0.7-3.7h7.8l-2.1,11.7H110.6z
	 M128.2,41.6c-0.6,0.6-1.5,0.9-2.3,0.9h-2.1l0.9-5h2c1.6,0,2.4,0.6,2.4,1.8C129.1,40.1,128.8,40.9,128.2,41.6L128.2,41.6z"/>
<polygon class="st2" points="61.5,13.3 25.1,44.7 30.1,63.5 57.3,38.5 "/>
<linearGradient id="SVGID_3_" gradientUnits="userSpaceOnUse" x1="-3815.2112" y1="320.3156" x2="-3815.2112" y2="374.9956" gradientTransform="matrix(-0.99 -0.16 0.16 -0.99 -3789.29 -238.02)">
	<stop  offset="0" style="stop-color:#231F20"/>
	<stop  offset="0.52" style="stop-color:#231F20;stop-opacity:0"/>
</linearGradient>
<polygon class="st3" points="61.5,13.3 25.1,44.7 30.1,63.5 57.3,38.5 "/>
<polygon class="st2" points="52.6,67.2 50.3,80.9 39.4,65.1 "/>
<linearGradient id="SVGID_4_" gradientUnits="userSpaceOnUse" x1="-3823.7676" y1="306.4256" x2="-3823.7676" y2="320.3173" gradientTransform="matrix(-0.99 -0.16 0.16 -0.99 -3789.29 -238.02)">
	<stop  offset="0" style="stop-color:#231F20"/>
	<stop  offset="0.81" style="stop-color:#231F20;stop-opacity:0"/>
</linearGradient>
<polygon class="st4" points="52.6,67.2 50.3,80.9 39.4,65.1 "/>
<polygon class="st5" points="1.6,29.3 57.3,38.5 61.5,13.3 19.2,6.3 "/>
<linearGradient id="SVGID_5_" gradientUnits="userSpaceOnUse" x1="-3837.6868" y1="352.5858" x2="-3781.1868" y2="352.5858" gradientTransform="matrix(-0.99 -0.16 0.16 -0.99 -3789.29 -238.02)">
	<stop  offset="0" style="stop-color:#929497"/>
	<stop  offset="0.85" style="stop-color:#D0D2D3;stop-opacity:0"/>
</linearGradient>
<polygon class="st6" points="1.6,29.3 57.3,38.5 61.5,13.3 19.2,6.3 "/>
<polygon class="st5" points="30.1,63.5 52.6,67.2 55.5,49.7 25.1,44.7 "/>
<linearGradient id="SVGID_6_" gradientUnits="userSpaceOnUse" x1="-3837.6868" y1="319.6502" x2="-3806.907" y2="319.6502" gradientTransform="matrix(-0.99 -0.16 0.16 -0.99 -3789.29 -238.02)">
	<stop  offset="0" style="stop-color:#6D6E70"/>
	<stop  offset="0.77" style="stop-color:#D0D2D3;stop-opacity:0"/>
</linearGradient>
<polygon class="st7" points="30.1,63.5 52.6,67.2 55.5,49.7 25.1,44.7 "/>
</svg>
