<svg id="Layer_1" data-name="Layer 1" xmlns="http://www.w3.org/2000/svg" xmlns:xlink="http://www.w3.org/1999/xlink" viewBox="0 0 135 87"><defs><style>.cls-1{fill:none;}.cls-2{clip-path:url(#clip-path);}.cls-3{fill:#231f20;}.cls-4{fill:#404041;}.cls-5,.cls-6,.cls-8,.cls-9{opacity:0.65;}.cls-5{fill:url(#linear-gradient);}.cls-6{fill:url(#linear-gradient-2);}.cls-7{fill:#929497;}.cls-8{fill:url(#linear-gradient-3);}.cls-9{fill:url(#linear-gradient-4);}</style><clipPath id="clip-path"><rect class="cls-1" x="-807" y="-1116" width="1920" height="855"/></clipPath><linearGradient id="linear-gradient" x1="-2702.01" y1="-141.34" x2="-2702.01" y2="-196.02" gradientTransform="matrix(-0.99, -0.16, -0.16, 0.99, -2651.57, -235.96)" gradientUnits="userSpaceOnUse"><stop offset="0" stop-color="#231f20"/><stop offset="0.52" stop-color="#231f20" stop-opacity="0"/></linearGradient><linearGradient id="linear-gradient-2" x1="-2710.72" y1="-127.45" x2="-2710.72" y2="-141.34" gradientTransform="matrix(-0.99, -0.16, -0.16, 0.99, -2651.57, -235.96)" gradientUnits="userSpaceOnUse"><stop offset="0" stop-color="#231f20"/><stop offset="0.81" stop-color="#231f20" stop-opacity="0"/></linearGradient><linearGradient id="linear-gradient-3" x1="-2717.4" y1="-183.24" x2="-2660.9" y2="-183.24" gradientTransform="matrix(-0.99, -0.16, -0.16, 0.99, -2651.57, -235.96)" gradientUnits="userSpaceOnUse"><stop offset="0" stop-color="#929497"/><stop offset="0.85" stop-color="#d0d2d3" stop-opacity="0"/></linearGradient><linearGradient id="linear-gradient-4" x1="-2717.4" y1="-150.23" x2="-2686.62" y2="-150.23" gradientTransform="matrix(-0.99, -0.16, -0.16, 0.99, -2651.57, -235.96)" gradientUnits="userSpaceOnUse"><stop offset="0" stop-color="#6d6e70"/><stop offset="0.77" stop-color="#d0d2d3" stop-opacity="0"/></linearGradient></defs><title>altmakerproArtboard 6png@1x</title><g class="cls-2"><image width="5000" height="3500" transform="translate(-1741 -1713) scale(0.57)" xlink:href="../../../Ebooks/links/OIH9IK0.jpg"/></g><path class="cls-3" d="M102.37,55.09a8.88,8.88,0,0,0-6.14-2,11.91,11.91,0,0,0-6,1.45,10.43,10.43,0,0,0-1.77,1.29L89,53.2a5.46,5.46,0,0,0-1.1-.11,9.16,9.16,0,0,0-4.35,1.08,7.25,7.25,0,0,0-3,2.88h-.14l.07-.36a23.8,23.8,0,0,0,.41-3.24h-5c-.08.86-.3,2.35-.67,4.49l-.25,1.42A7,7,0,0,0,73.19,55a6.1,6.1,0,0,0-4.71-1.92c-2.59,0-4.48.88-5.65,2.64h-.08q.22-1.35.3-2.28h-5c-.1,1.13-.33,2.78-.7,5L53.46,80.72h5.21l1.88-10.59h.11a4.27,4.27,0,0,0,2.06,1.53,8.37,8.37,0,0,0,3,.53,7.91,7.91,0,0,0,4.79-1.52,9.87,9.87,0,0,0,3-3.88l-.9,5h5.22l1.36-7.68a7.7,7.7,0,0,1,1.56-3.42,9.58,9.58,0,0,1,3-2.54,7.9,7.9,0,0,1,3.31-.93,9.91,9.91,0,0,0-.88,1.36,12.53,12.53,0,0,0-1.42,6.08,7,7,0,0,0,2.26,5.49,8.94,8.94,0,0,0,6.16,2,11.76,11.76,0,0,0,5.93-1.45,10.13,10.13,0,0,0,4-4.08,12.66,12.66,0,0,0,1.41-6.08A7,7,0,0,0,102.37,55.09ZM69.09,64.64a6.41,6.41,0,0,1-1.67,2.72,3.49,3.49,0,0,1-2.42,1,3.61,3.61,0,0,1-2.5-.9,2.77,2.77,0,0,1-1-2.18,3.63,3.63,0,0,1,0-.55l.7-3.93a4.3,4.3,0,0,1,1.58-2.69,4.84,4.84,0,0,1,3.09-1A2.52,2.52,0,0,1,69,58a4.23,4.23,0,0,1,.74,2.66A12.21,12.21,0,0,1,69.09,64.64Zm29.54.17a6.26,6.26,0,0,1-2,2.59,4.64,4.64,0,0,1-2.83.93,3.44,3.44,0,0,1-2.72-1.12,4.39,4.39,0,0,1-1-3,9.37,9.37,0,0,1,.71-3.71,6.37,6.37,0,0,1,2-2.59,4.63,4.63,0,0,1,2.83-.94,3.46,3.46,0,0,1,2.72,1.11,4.39,4.39,0,0,1,1,3.05A9.23,9.23,0,0,1,98.63,64.81ZM89.26,30.07c-1,0-1.44-.35-1.44-1l0-.3L91.9,6H86.68l-4,22.63a7.25,7.25,0,0,0-.11,1.29V30L79,9.26H74.24L61.77,33h5.91l1.7-3.53h7.78L77.6,33h5.5l-.28-1.58a3.06,3.06,0,0,0,.85,1.24,4.83,4.83,0,0,0,3.23,1,8.61,8.61,0,0,0,4.93-1.36l-.3-2.72A7,7,0,0,1,89.26,30.07ZM71.45,25.15l4.08-8.56,1.08,8.56Zm25.66,1.79a7.56,7.56,0,0,0-.07.81,1.82,1.82,0,0,0,.62,1.53,3.14,3.14,0,0,0,2,.49,8.34,8.34,0,0,0,2.79-.47l-.4,3.52a12.81,12.81,0,0,1-4.89.81,6.16,6.16,0,0,1-4-1.19,4.13,4.13,0,0,1-1.44-3.36,9,9,0,0,1,.11-1.33l1.58-9H90l.7-3.86H94l.81-4.66,5.33-1.47h.15l-1.07,6.13h5.36l-.69,3.86H98.54Zm35.32,15.18a6.18,6.18,0,0,0,.94-3.54,4,4,0,0,0-1.51-3.37A6.93,6.93,0,0,0,127.53,34H104.24l-7,7.69L98.59,34H94.33L91.62,49.36,89,34h-3.7L77.2,49.41,79.93,34H75.35L68.14,48,65.81,34h-4.2l-3.28,18.5h4.2l1.7-9.62,1.71,9.62h3l5.23-9.88-1.74,9.88h7.71l1.33-2.74h6.05l.34,2.74h7.43l.92-5.2,2.7-2.75,3.17,8H122l1.19-6.74h1a3.78,3.78,0,0,1,1.63.24,1.28,1.28,0,0,1,.56,1l1.09,5.52h4.49l-1.51-6.84a1.85,1.85,0,0,0-.27-.69,4,4,0,0,0-.62-.66v-.05A6,6,0,0,0,132.43,42.12ZM83.1,46.4l3.17-6.66.85,6.66ZM106,50.83l-3.82-9.56,6.7-6.84Zm4.56-1.68.8-4.62h7.5l.61-3.39h-7.51l.66-3.72h7.81l-2.06,11.73Zm17.64-7.6a3.16,3.16,0,0,1-2.33.89h-2.07l.9-5h2c1.59,0,2.38.6,2.38,1.79A3.13,3.13,0,0,1,128.17,41.55Z"/><polygon class="cls-4" points="61.47 13.28 25.08 44.66 30.07 63.52 57.31 38.49 61.47 13.28"/><polygon class="cls-5" points="61.47 13.28 25.08 44.66 30.07 63.52 57.31 38.49 61.47 13.28"/><polygon class="cls-4" points="52.56 67.23 50.3 80.93 39.36 65.05 52.56 67.23"/><polygon class="cls-6" points="52.56 67.23 50.3 80.93 39.36 65.05 52.56 67.23"/><polygon class="cls-7" points="1.56 29.29 57.31 38.49 61.47 13.28 19.19 6.3 1.56 29.29"/><polygon class="cls-8" points="1.56 29.29 57.31 38.49 61.47 13.28 19.19 6.3 1.56 29.29"/><polygon class="cls-7" points="30.07 63.52 52.56 67.23 55.46 49.68 25.08 44.66 30.07 63.52"/><polygon class="cls-9" points="30.07 63.52 52.56 67.23 55.46 49.68 25.08 44.66 30.07 63.52"/></svg>