<svg id="Layer_1" data-name="Layer 1" xmlns="http://www.w3.org/2000/svg" xmlns:xlink="http://www.w3.org/1999/xlink" viewBox="0 0 76 76"><defs><style>.cls-1,.cls-2{fill-rule:evenodd;}.cls-1{fill:url(#linear-gradient);}.cls-2{fill:#fff;}</style><linearGradient id="linear-gradient" x1="38" y1="76" x2="38" gradientUnits="userSpaceOnUse"><stop offset="0" stop-color="#25cf43"/><stop offset="1" stop-color="#61fd7d"/></linearGradient></defs><title>altmakerproArtboard 4png@1x</title><g id="Icon_Shape" data-name="Icon Shape"><path class="cls-1" d="M76,56.71c0,.42,0,1.32,0,2a40.78,40.78,0,0,1-.4,4.91,16.54,16.54,0,0,1-1.38,4.11,14.56,14.56,0,0,1-6.45,6.44,16.37,16.37,0,0,1-4.14,1.38,40.12,40.12,0,0,1-4.87.39c-.7,0-1.6,0-2,0H19.29l-2,0a43,43,0,0,1-4.91-.4,16.54,16.54,0,0,1-4.11-1.38,14.56,14.56,0,0,1-6.44-6.45A16.37,16.37,0,0,1,.43,63.59,40.12,40.12,0,0,1,0,58.72c0-.7,0-1.6,0-2V19.29c0-.42,0-1.32,0-2a40.51,40.51,0,0,1,.41-4.91A16.13,16.13,0,0,1,1.82,8.25,14.56,14.56,0,0,1,8.27,1.81,16.37,16.37,0,0,1,12.41.43,40.12,40.12,0,0,1,17.28,0c.7,0,1.6,0,2,0H56.71l2,0a42.76,42.76,0,0,1,4.91.4,16.54,16.54,0,0,1,4.11,1.38,14.56,14.56,0,0,1,6.44,6.45,16.37,16.37,0,0,1,1.38,4.14A40.12,40.12,0,0,1,76,17.28c0,.7,0,1.6,0,2Z"/></g><g id="WA_Logo" data-name="WA Logo"><path class="cls-2" d="M58,18.19A27.09,27.09,0,0,0,15.35,50.87l-3.84,14,14.36-3.76a27,27,0,0,0,12.94,3.29h0A27.1,27.1,0,0,0,58,18.19ZM38.82,59.86h0a22.49,22.49,0,0,1-11.46-3.14l-.82-.48L18,58.47l2.27-8.31-.53-.85A22.52,22.52,0,1,1,38.82,59.86ZM51.17,43c-.67-.34-4-2-4.62-2.2s-1.07-.34-1.52.34-1.75,2.2-2.15,2.65-.79.51-1.46.17A18.44,18.44,0,0,1,36,40.6a20.33,20.33,0,0,1-3.76-4.68c-.4-.68,0-1.05.29-1.39s.68-.79,1-1.18a4.85,4.85,0,0,0,.68-1.13A1.27,1.27,0,0,0,34.14,31c-.17-.33-1.52-3.67-2.09-5s-1.1-1.14-1.52-1.16-.85,0-1.3,0a2.47,2.47,0,0,0-1.8.85,7.61,7.61,0,0,0-2.37,5.65c0,3.33,2.42,6.54,2.76,7S32.6,45.6,39.39,48.53A37.8,37.8,0,0,0,43.24,50a9.44,9.44,0,0,0,4.27.27c1.3-.2,4-1.64,4.57-3.22a5.67,5.67,0,0,0,.39-3.22C52.3,43.51,51.85,43.34,51.17,43Z"/></g></svg>